<?xml version="1.0" encoding="UTF-8" standalone="no"?>
<!-- Created with Inkscape (http://www.inkscape.org/) -->

<svg
   xmlns:dc="http://purl.org/dc/elements/1.1/"
   xmlns:cc="http://creativecommons.org/ns#"
   xmlns:rdf="http://www.w3.org/1999/02/22-rdf-syntax-ns#"
   xmlns:svg="http://www.w3.org/2000/svg"
   xmlns="http://www.w3.org/2000/svg"
   xmlns:sodipodi="http://sodipodi.sourceforge.net/DTD/sodipodi-0.dtd"
   xmlns:inkscape="http://www.inkscape.org/namespaces/inkscape"
   width="744.09448819"
   height="1052.3622047"
   id="svg2"
   version="1.1"
   inkscape:version="0.47 r22583"
   sodipodi:docname="New document 1">
  <defs
     id="defs4">
    <inkscape:perspective
       sodipodi:type="inkscape:persp3d"
       inkscape:vp_x="0 : 526.18109 : 1"
       inkscape:vp_y="0 : 1000 : 0"
       inkscape:vp_z="744.09448 : 526.18109 : 1"
       inkscape:persp3d-origin="372.04724 : 350.78739 : 1"
       id="perspective10" />
    <inkscape:perspective
       id="perspective2902"
       inkscape:persp3d-origin="0.5 : 0.33333333 : 1"
       inkscape:vp_z="1 : 0.5 : 1"
       inkscape:vp_y="0 : 1000 : 0"
       inkscape:vp_x="0 : 0.5 : 1"
       sodipodi:type="inkscape:persp3d" />
  </defs>
  <sodipodi:namedview
     id="base"
     pagecolor="#ffffff"
     bordercolor="#666666"
     borderopacity="1.0"
     inkscape:pageopacity="0.0"
     inkscape:pageshadow="2"
     inkscape:zoom="0.35"
     inkscape:cx="375"
     inkscape:cy="520"
     inkscape:document-units="px"
     inkscape:current-layer="layer1"
     showgrid="false"
     inkscape:window-width="820"
     inkscape:window-height="758"
     inkscape:window-x="0"
     inkscape:window-y="0"
     inkscape:window-maximized="0" />
  <metadata
     id="metadata7">
    <rdf:RDF>
      <cc:Work
         rdf:about="">
        <dc:format>image/svg+xml</dc:format>
        <dc:type
           rdf:resource="http://purl.org/dc/dcmitype/StillImage" />
        <dc:title></dc:title>
      </cc:Work>
    </rdf:RDF>
  </metadata>
  <g
     inkscape:label="Layer 1"
     inkscape:groupmode="layer"
     id="layer1">
    <path
       style="fill:#000000"
       d="m 339.33827,597.13928 c -5.43984,-1.80448 -12.89924,-4.59327 -16.57645,-6.19733 -3.67722,-1.60404 -9.13953,-2.91645 -12.13847,-2.91645 -4.87217,0 -5.45264,-0.58033 -5.45264,-5.45131 0,-3.18672 -1.12059,-5.88134 -2.69744,-6.48643 -3.3693,-1.29293 -3.54091,-4.2469 -0.24673,-4.2469 1.65071,0 3.13941,-4.26915 4.5604,-13.07783 1.741,-10.79244 1.65786,-14.35838 -0.47574,-20.40566 -5.65953,-16.04085 -9.92677,-22.09888 -18.7023,-26.55086 -10.50679,-5.33028 -28.09967,-23.4834 -32.80395,-33.84856 -1.92721,-4.24635 -3.52181,-11.2111 -3.54354,-15.47725 -0.0365,-7.17482 -1.0511,-8.81857 -13.52668,-21.91521 -7.41796,-7.78724 -13.4872,-14.97419 -13.4872,-15.971 0,-0.99681 -5.26001,-8.00179 -11.6889,-15.56662 -6.4289,-7.56482 -11.68891,-14.44043 -11.68891,-15.27912 0,-2.67164 4.24329,-4.34428 13.44972,-5.30171 l 8.95401,-0.93119 -6.70614,-7.41113 c -3.68837,-4.07612 -6.70612,-7.90351 -6.70612,-8.50535 0,-0.60181 3.23692,-2.74556 7.19317,-4.76389 3.95624,-2.01833 7.19317,-4.40433 7.19317,-5.30223 0,-1.3446 -7.69178,-4.69551 -22.92823,-9.98862 -1.23633,-0.4295 -2.24787,-1.55662 -2.24787,-2.50471 0,-2.3319 12.83037,-12.77542 15.69521,-12.77542 4.33867,0 2.27076,-6.50408 -4.00043,-12.58235 -4.52948,-4.39015 -5.66111,-6.4929 -4.04616,-7.51841 4.04426,-2.56814 20.11533,-1.62477 24.48718,1.43738 3.6291,2.54194 4.49659,2.5829 6.76023,0.31927 3.38816,-3.38817 1.38111,-8.44757 -4.19164,-10.56632 -2.40216,-0.9133 -9.52712,-1.66055 -15.83325,-1.66055 -6.30614,0 -11.92761,-0.74735 -12.49213,-1.66077 -2.79368,-4.52028 25.30874,-18.33556 39.63695,-19.48568 10.74019,-0.86212 11.21099,-0.71136 18.58526,5.95084 4.16127,3.75946 15.13485,18.22491 24.38574,32.14544 27.83083,41.87922 33.28179,45.36588 57.74196,36.93408 5.84193,-2.01382 19.45051,-4.89578 30.24129,-6.40437 26.47729,-3.70164 37.8042,-9.63335 53.15171,-27.83457 6.58781,-7.81274 7.43744,-9.7169 5.87031,-13.15633 -1.13555,-2.49227 -1.20627,-5.14015 -0.18598,-6.96331 1.37615,-2.45903 15.36084,-15.01287 33.4881,-30.06171 3.36675,-2.79501 4.04616,-5.15665 4.04616,-14.06468 0,-12.35639 2.23735,-15.27123 11.06513,-14.41572 4.95054,0.47974 6.18008,1.53667 7.60548,6.53767 1.78179,6.25139 1.29064,6.14747 13.30627,2.81543 3.89719,-1.08072 4.04587,-0.7785 2.95945,6.01559 -0.87551,5.47514 -0.50679,7.39796 1.57153,8.19551 1.4935,0.57309 3.25078,3.47937 3.90507,6.45838 1.132,5.15393 9.22191,13.81548 18.94688,20.28563 4.97879,3.31247 4.77129,3.47633 -8.81194,6.95918 l -7.89666,2.02477 0.96912,17.58717 c 0.53299,9.67295 0.44495,18.40476 -0.19568,19.40402 -0.64062,0.99925 -3.18785,1.72231 -5.6605,1.60677 -4.09475,-0.1913 -4.48789,0.43154 -4.40772,6.98313 0.0484,3.95624 0.75186,13.48042 1.56325,21.16483 l 1.47527,13.97167 -6.3103,5.95138 c -10.55274,9.95253 -15.36097,22.6843 -17.41757,46.1203 -2.37676,27.08459 -6.38908,35.49152 -23.99945,50.28566 -12.26961,10.30745 -48.61946,37.44119 -69.14123,51.61122 -10.64462,7.34998 -11.49306,10.48825 -4.94071,18.27527 10.84955,12.89396 32.43272,22.61417 57.0318,25.68484 21.64008,2.70131 24.16116,4.13697 12.27285,6.98894 -6.32293,1.51684 -14.22756,1.83117 -24.07594,0.95736 -8.06429,-0.71551 -22.98629,-1.51866 -33.16,-1.78475 -10.17374,-0.26612 -18.929,-0.91516 -19.45616,-1.44231 -0.52716,-0.52717 1.52525,-2.42564 4.56092,-4.21885 3.03564,-1.79322 5.51561,-3.69283 5.51101,-4.22138 -0.005,-0.52854 -5.72803,-7.63715 -12.71875,-15.79691 -7.94493,-9.27354 -14.0405,-14.83591 -16.25801,-14.83591 -1.9512,0 -5.49441,-1.94678 -7.87379,-4.32616 -5.25157,-5.25157 -11.67335,-4.3562 -25.31672,3.5298 -11.03764,6.37988 -11.49309,7.0528 -11.52684,17.03043 -0.0424,12.56327 3.45079,16.13196 15.80949,16.15083 14.6274,0.0223 29.19343,2.00777 28.06966,3.82606 -0.52796,0.85426 -2.88748,1.55319 -5.24339,1.55319 -6.2375,0 -6.97801,2.79753 -1.81543,6.85842 2.48207,1.95238 4.51287,4.04027 4.51287,4.63972 0,1.99346 -7.9718,0.93648 -17.98293,-2.38436 z"
       id="path2908" />
  </g>
</svg>
